<svg width="43" height="43" viewBox="0 0 43 43" fill="none" xmlns="http://www.w3.org/2000/svg">
<path fill-rule="evenodd" clip-rule="evenodd" d="M8.0625 36.2812C7.70611 36.2812 7.36433 36.1397 7.11232 35.8877C6.86032 35.6357 6.71875 35.2939 6.71875 34.9375V8.0625C6.71875 7.70612 6.86032 7.36433 7.11232 7.11233C7.36433 6.86032 7.70611 6.71875 8.0625 6.71875H32.9219C33.4564 6.71875 33.9691 6.50639 34.3471 6.12839C34.7251 5.75038 34.9375 5.2377 34.9375 4.70312C34.9375 4.16855 34.7251 3.65587 34.3471 3.27786C33.9691 2.89986 33.4564 2.6875 32.9219 2.6875H8.0625C6.63696 2.6875 5.26981 3.25379 4.2618 4.2618C3.25379 5.26981 2.6875 6.63696 2.6875 8.0625V34.9375C2.6875 36.363 3.25379 37.7302 4.2618 38.7382C5.26981 39.7462 6.63696 40.3125 8.0625 40.3125H34.9375C36.363 40.3125 37.7302 39.7462 38.7382 38.7382C39.7462 37.7302 40.3125 36.363 40.3125 34.9375V26.2031C40.3125 25.6685 40.1001 25.1559 39.7221 24.7779C39.3441 24.3999 38.8314 24.1875 38.2969 24.1875C37.7623 24.1875 37.2496 24.3999 36.8716 24.7779C36.4936 25.1559 36.2812 25.6685 36.2812 26.2031V34.9375C36.2812 35.2939 36.1397 35.6357 35.8877 35.8877C35.6357 36.1397 35.2939 36.2812 34.9375 36.2812H8.0625ZM42.4087 12.5775C42.7648 12.1954 42.9586 11.69 42.9494 11.1678C42.9402 10.6457 42.7286 10.1474 42.3593 9.77814C41.9901 9.40884 41.4918 9.19731 40.9696 9.18809C40.4475 9.17888 39.9421 9.37271 39.56 9.72875L24.6229 24.6632L19.5892 19.4602C19.4055 19.2683 19.1858 19.1146 18.9425 19.0079C18.6992 18.9012 18.4373 18.8437 18.1717 18.8386C17.9062 18.8335 17.6422 18.8809 17.395 18.9781C17.1478 19.0754 16.9223 19.2205 16.7314 19.4052C16.5405 19.5899 16.388 19.8105 16.2827 20.0544C16.1773 20.2982 16.1212 20.5605 16.1175 20.8261C16.1139 21.0917 16.1628 21.3554 16.2614 21.602C16.3599 21.8486 16.5063 22.0734 16.6921 22.2633L23.1501 28.939C23.3359 29.1317 23.5583 29.2855 23.8042 29.3913C24.0501 29.4972 24.3146 29.553 24.5823 29.5555C24.85 29.558 25.1155 29.5072 25.3633 29.4059C25.6112 29.3047 25.8364 29.1551 26.0257 28.9659L42.4087 12.5775Z" fill="#00B334"/>
</svg>
